<svg xmlns="http://www.w3.org/2000/svg" xmlns:xlink="http://www.w3.org/1999/xlink" width="600" zoomAndPan="magnify" viewBox="0 0 450 149.999998" height="200" preserveAspectRatio="xMidYMid meet" version="1.0"><defs><g/><clipPath id="id1"><path d="M 222 37.21875 L 239 37.21875 L 239 63 L 222 63 Z M 222 37.21875 " clip-rule="nonzero"/></clipPath><clipPath id="id2"><path d="M 211 37.21875 L 225 37.21875 L 225 63 L 211 63 Z M 211 37.21875 " clip-rule="nonzero"/></clipPath></defs><rect x="-45" width="540" fill="rgb(100%, 100%, 100%)" y="-15" height="179.999997" fill-opacity="1"/><rect x="-45" width="540" fill="rgb(92.158508%, 100%, 94.119263%)" y="-15" height="179.999997" fill-opacity="1"/><rect x="-45" width="540" fill="rgb(100%, 100%, 100%)" y="-15" height="179.999997" fill-opacity="1"/><rect x="-45" width="540" fill="rgb(92.158508%, 100%, 94.119263%)" y="-15" height="179.999997" fill-opacity="1"/><path fill="rgb(94.509888%, 76.858521%, 5.879211%)" d="M 245.160156 91.871094 C 242.246094 91.871094 239.613281 90.636719 237.4375 88.179688 C 233.3125 83.503906 229.191406 78.824219 225.070312 74.148438 C 224.789062 73.824219 224.835938 73.667969 225.09375 73.382812 C 230.390625 67.417969 235.683594 61.449219 240.976562 55.46875 C 241.265625 55.136719 241.429688 55.082031 241.75 55.445312 C 245.835938 60.105469 249.945312 64.738281 254.03125 69.394531 C 255.105469 70.605469 255.921875 71.972656 256.488281 73.492188 C 257.050781 75.011719 257.324219 76.578125 257.300781 78.199219 C 257.320312 79.863281 257.046875 81.476562 256.480469 83.039062 C 255.910156 84.601562 255.085938 86.015625 254 87.277344 C 252.242188 89.359375 250.238281 90.929688 247.726562 91.578125 C 246.882812 91.777344 246.027344 91.875 245.160156 91.871094 Z M 245.160156 91.871094 " fill-opacity="1" fill-rule="nonzero"/><path fill="rgb(17.248535%, 24.308777%, 31.369019%)" d="M 192.046875 79.203125 C 192.046875 74.816406 193.183594 71.820312 195.382812 69.320312 C 199.464844 64.6875 203.550781 60.0625 207.640625 55.445312 C 207.917969 55.128906 208.074219 55.085938 208.363281 55.429688 C 209.0625 56.269531 209.78125 57.089844 210.523438 57.886719 C 210.816406 58.199219 210.8125 58.378906 210.523438 58.703125 C 208.117188 61.40625 205.722656 64.117188 203.339844 66.839844 C 201.542969 68.875 199.738281 70.902344 197.953125 72.953125 C 197.050781 73.984375 196.953125 75.71875 197.691406 76.792969 C 198.714844 78.273438 200.15625 78.703125 201.390625 77.90625 C 201.636719 77.726562 201.855469 77.515625 202.042969 77.277344 C 206.15625 72.617188 210.265625 67.957031 214.371094 63.292969 C 214.707031 62.914062 214.878906 62.835938 215.261719 63.269531 C 218.214844 66.679688 221.191406 70.066406 224.183594 73.433594 C 224.484375 73.773438 224.5 73.949219 224.183594 74.300781 C 220.082031 78.910156 215.992188 83.53125 211.910156 88.15625 C 209.765625 90.578125 207.179688 91.890625 204.15625 91.921875 C 201.308594 91.945312 198.769531 90.910156 196.628906 88.6875 C 195.199219 87.207031 193.902344 85.621094 193.066406 83.601562 C 192.378906 81.941406 192.039062 80.195312 192.046875 79.203125 Z M 192.046875 79.203125 " fill-opacity="1" fill-rule="nonzero"/><g clip-path="url(#id1)"><path fill="rgb(15.289307%, 68.238831%, 37.649536%)" d="M 238.042969 44.742188 C 238.042969 47.757812 237.679688 50.691406 236.570312 53.460938 C 235.183594 56.9375 232.910156 59.378906 229.878906 60.972656 C 228.140625 61.890625 226.304688 62.414062 224.441406 62.816406 C 224.125 62.886719 223.992188 62.78125 223.875 62.472656 C 222.835938 59.820312 222.46875 57.074219 222.769531 54.242188 C 223.28125 49.472656 225.582031 45.902344 228.757812 42.949219 C 231.148438 40.695312 233.882812 39.140625 236.765625 37.871094 C 237.292969 37.636719 237.417969 37.816406 237.492188 38.382812 C 237.832031 40.488281 238.015625 42.609375 238.042969 44.742188 Z M 238.042969 44.742188 " fill-opacity="1" fill-rule="nonzero"/></g><g clip-path="url(#id2)"><path fill="rgb(15.289307%, 68.238831%, 37.649536%)" d="M 222.605469 62.484375 C 220.058594 61.832031 217.742188 60.621094 215.828125 58.535156 C 213.417969 55.917969 212.128906 52.636719 211.492188 48.980469 C 210.824219 45.230469 210.960938 41.480469 211.507812 37.730469 C 211.574219 37.277344 211.660156 37.09375 212.144531 37.296875 C 215.21875 38.570312 218.136719 40.148438 220.664062 42.546875 C 221.964844 43.792969 223.050781 45.195312 223.925781 46.765625 C 224.144531 47.074219 224.152344 47.386719 223.953125 47.703125 C 221.53125 52.242188 221.265625 57.011719 222.824219 61.960938 C 222.882812 62.179688 223.140625 62.53125 222.605469 62.484375 Z M 222.605469 62.484375 " fill-opacity="1" fill-rule="nonzero"/></g><g fill="rgb(17.248535%, 24.308777%, 31.369019%)" fill-opacity="1"><g transform="translate(85.527809, 81.749997)"><g><path d="M 3.796875 0 L 3.796875 -5.492188 L 8.5 -5.492188 L 8.5 -7.828125 L 3.796875 -7.828125 L 3.796875 -10.164062 L 7.84375 -10.164062 L 7.84375 -12.515625 L 1.191406 -12.515625 L 1.191406 0 Z M 3.796875 0 "/></g></g></g><g fill="rgb(17.248535%, 24.308777%, 31.369019%)" fill-opacity="1"><g transform="translate(94.528827, 81.749997)"><g><path d="M 10.28125 0 L 13.121094 0 L 6.5 -12.734375 L -0.101562 0 L 2.585938 0 L 3.394531 -1.679688 L 9.457031 -1.679688 Z M 6.402344 -7.929688 L 8.316406 -4.03125 L 4.519531 -4.03125 Z M 6.402344 -7.929688 "/></g></g></g><g fill="rgb(17.248535%, 24.308777%, 31.369019%)" fill-opacity="1"><g transform="translate(107.543367, 81.749997)"><g><path d="M 5.105469 -2.167969 L 7.15625 0 L 10.617188 0 L 7.914062 -2.890625 C 9.660156 -3.695312 10.734375 -5.34375 10.734375 -7.59375 C 10.734375 -10.316406 8.484375 -12.515625 5.542969 -12.515625 L 1.191406 -12.515625 L 1.191406 0 L 3.796875 0 L 3.796875 -2.167969 Z M 3.796875 -4.519531 L 3.796875 -10.164062 L 5.375 -10.164062 C 7.15625 -10.164062 8.0625 -8.921875 8.0625 -7.390625 C 8.0625 -5.527344 6.9375 -4.519531 4.871094 -4.519531 Z M 3.796875 -4.519531 "/></g></g></g><g fill="rgb(17.248535%, 24.308777%, 31.369019%)" fill-opacity="1"><g transform="translate(118.878614, 81.749997)"><g><path d="M 7.863281 -7.675781 L 1.191406 -12.734375 L 1.191406 0 L 3.796875 0 L 3.796875 -7.542969 L 7.863281 -4.601562 L 11.929688 -7.542969 L 11.929688 0 L 14.515625 0 L 14.515625 -12.734375 Z M 7.863281 -7.675781 "/></g></g></g><g fill="rgb(17.248535%, 24.308777%, 31.369019%)" fill-opacity="1"><g transform="translate(134.596821, 81.749997)"><g><path d="M 10.28125 0 L 13.121094 0 L 6.5 -12.734375 L -0.101562 0 L 2.585938 0 L 3.394531 -1.679688 L 9.457031 -1.679688 Z M 6.402344 -7.929688 L 8.316406 -4.03125 L 4.519531 -4.03125 Z M 6.402344 -7.929688 "/></g></g></g><g fill="rgb(17.248535%, 24.308777%, 31.369019%)" fill-opacity="1"><g transform="translate(147.611362, 81.749997)"><g><path d="M 10.921875 -5.527344 C 10.566406 -3.644531 8.988281 -2.285156 7.105469 -2.285156 C 5.007812 -2.285156 3.34375 -4.046875 3.34375 -6.25 C 3.34375 -8.46875 5.007812 -10.246094 7.105469 -10.246094 C 8.398438 -10.246094 9.675781 -9.59375 10.585938 -8.25 L 12.617188 -9.695312 C 11.492188 -11.523438 9.425781 -12.734375 7.089844 -12.734375 C 3.527344 -12.734375 0.671875 -9.828125 0.671875 -6.25 C 0.671875 -2.671875 3.527344 0.21875 7.105469 0.21875 C 10.433594 0.21875 13.1875 -2.320312 13.558594 -5.527344 Z M 10.921875 -5.527344 "/></g></g></g><g fill="rgb(17.248535%, 24.308777%, 31.369019%)" fill-opacity="1"><g transform="translate(161.834994, 81.749997)"><g><path d="M 3.796875 -12.515625 L 1.191406 -12.515625 L 1.191406 0 L 3.796875 0 Z M 3.796875 -12.515625 "/></g></g></g><g fill="rgb(17.248535%, 24.308777%, 31.369019%)" fill-opacity="1"><g transform="translate(166.822501, 81.749997)"><g><path d="M 10.28125 0 L 13.121094 0 L 6.5 -12.734375 L -0.101562 0 L 2.585938 0 L 3.394531 -1.679688 L 9.457031 -1.679688 Z M 6.402344 -7.929688 L 8.316406 -4.03125 L 4.519531 -4.03125 Z M 6.402344 -7.929688 "/></g></g></g><g fill="rgb(17.248535%, 24.308777%, 31.369019%)" fill-opacity="1"><g transform="translate(270.685944, 81.749997)"><g><path d="M 1.191406 -12.515625 L 1.191406 0 L 6.28125 0 C 9.878906 0 12.820312 -2.671875 12.820312 -6.265625 C 12.820312 -9.828125 9.878906 -12.515625 6.265625 -12.515625 Z M 3.796875 -2.351562 L 3.796875 -10.164062 L 6.265625 -10.164062 C 8.449219 -10.164062 10.148438 -8.535156 10.148438 -6.265625 C 10.148438 -4.015625 8.449219 -2.351562 6.28125 -2.351562 Z M 3.796875 -2.351562 "/></g></g></g><g fill="rgb(17.248535%, 24.308777%, 31.369019%)" fill-opacity="1"><g transform="translate(284.170688, 81.749997)"><g><path d="M 5.105469 -2.167969 L 7.15625 0 L 10.617188 0 L 7.914062 -2.890625 C 9.660156 -3.695312 10.734375 -5.34375 10.734375 -7.59375 C 10.734375 -10.316406 8.484375 -12.515625 5.542969 -12.515625 L 1.191406 -12.515625 L 1.191406 0 L 3.796875 0 L 3.796875 -2.167969 Z M 3.796875 -4.519531 L 3.796875 -10.164062 L 5.375 -10.164062 C 7.15625 -10.164062 8.0625 -8.921875 8.0625 -7.390625 C 8.0625 -5.527344 6.9375 -4.519531 4.871094 -4.519531 Z M 3.796875 -4.519531 "/></g></g></g><g fill="rgb(17.248535%, 24.308777%, 31.369019%)" fill-opacity="1"><g transform="translate(295.505935, 81.749997)"><g><path d="M 2.300781 -2.351562 C 1.527344 -2.351562 1.007812 -1.78125 1.007812 -1.058594 C 1.007812 -0.371094 1.527344 0.21875 2.300781 0.21875 C 3.089844 0.21875 3.59375 -0.371094 3.59375 -1.058594 C 3.59375 -1.78125 3.074219 -2.351562 2.300781 -2.351562 Z M 2.300781 -2.351562 "/></g></g></g><g fill="rgb(17.248535%, 24.308777%, 31.369019%)" fill-opacity="1"><g transform="translate(300.107203, 81.749997)"><g/></g></g><g fill="rgb(17.248535%, 24.308777%, 31.369019%)" fill-opacity="1"><g transform="translate(307.177031, 81.749997)"><g><path d="M 7.863281 -7.675781 L 1.191406 -12.734375 L 1.191406 0 L 3.796875 0 L 3.796875 -7.542969 L 7.863281 -4.601562 L 11.929688 -7.542969 L 11.929688 0 L 14.515625 0 L 14.515625 -12.734375 Z M 7.863281 -7.675781 "/></g></g></g><g fill="rgb(17.248535%, 24.308777%, 31.369019%)" fill-opacity="1"><g transform="translate(322.895238, 81.749997)"><g><path d="M 6.484375 0.21875 C 9.8125 0.21875 11.84375 -1.933594 11.84375 -5.578125 L 11.84375 -12.515625 L 9.273438 -12.515625 L 9.273438 -5.359375 C 9.273438 -3.476562 8.433594 -2.285156 6.484375 -2.285156 C 4.636719 -2.285156 3.679688 -3.394531 3.679688 -5.359375 L 3.679688 -12.515625 L 1.074219 -12.515625 L 1.074219 -5.796875 C 1.074219 -2.320312 2.824219 0.21875 6.484375 0.21875 Z M 6.484375 0.21875 "/></g></g></g><g fill="rgb(17.248535%, 24.308777%, 31.369019%)" fill-opacity="1"><g transform="translate(335.809014, 81.749997)"><g><path d="M 10.097656 -5.273438 L 1.191406 -12.75 L 1.191406 0 L 3.796875 0 L 3.796875 -7.191406 L 12.699219 0.21875 L 12.699219 -12.515625 L 10.097656 -12.515625 Z M 10.097656 -5.273438 "/></g></g></g><g fill="rgb(17.248535%, 24.308777%, 31.369019%)" fill-opacity="1"><g transform="translate(349.696785, 81.749997)"><g><path d="M 1.191406 -12.515625 L 1.191406 0 L 6.28125 0 C 9.878906 0 12.820312 -2.671875 12.820312 -6.265625 C 12.820312 -9.828125 9.878906 -12.515625 6.265625 -12.515625 Z M 3.796875 -2.351562 L 3.796875 -10.164062 L 6.265625 -10.164062 C 8.449219 -10.164062 10.148438 -8.535156 10.148438 -6.265625 C 10.148438 -4.015625 8.449219 -2.351562 6.28125 -2.351562 Z M 3.796875 -2.351562 "/></g></g></g><g fill="rgb(17.248535%, 24.308777%, 31.369019%)" fill-opacity="1"><g transform="translate(363.181529, 81.749997)"><g><path d="M 7.15625 0.21875 C 10.734375 0.21875 13.625 -2.6875 13.625 -6.265625 C 13.625 -9.84375 10.734375 -12.734375 7.140625 -12.734375 C 3.5625 -12.734375 0.671875 -9.84375 0.671875 -6.265625 C 0.671875 -2.6875 3.5625 0.21875 7.15625 0.21875 Z M 7.140625 -10.246094 C 9.257812 -10.246094 10.953125 -8.46875 10.953125 -6.265625 C 10.953125 -4.03125 9.273438 -2.285156 7.15625 -2.285156 C 5.007812 -2.285156 3.34375 -4.03125 3.34375 -6.265625 C 3.34375 -8.46875 5.007812 -10.246094 7.140625 -10.246094 Z M 7.140625 -10.246094 "/></g></g></g></svg>