<svg xmlns="http://www.w3.org/2000/svg" viewBox="0 0 719.41 251.88"><defs><style>.cls-1{fill:#f1c40f;}.cls-2{fill:#2c3e50;}.cls-3{fill:#27ae60;}</style></defs><g id="Capa_2" data-name="Capa 2"><g id="Capa_1-2" data-name="Capa 1"><path class="cls-1" d="M244.11,251.66c-13.39,0-25.5-5.68-35.49-17q-28.44-32.3-56.84-64.62c-1.3-1.48-1.07-2.2.09-3.51q36.54-41.2,73-82.5c1.33-1.52,2.09-1.77,3.56-.1,18.77,21.45,37.66,42.78,56.44,64.22a60,60,0,0,1,15,40.58,63,63,0,0,1-15.16,41.81c-8.08,9.59-17.3,16.81-28.83,19.8A50.28,50.28,0,0,1,244.11,251.66Z"/><path class="cls-2" d="M0,193.32c0-20.19,5.24-34,15.34-45.51q28.14-32,56.33-63.89c1.28-1.45,2-1.65,3.32-.07q4.82,5.82,9.93,11.31c1.35,1.45,1.33,2.28,0,3.77q-16.61,18.66-33.07,37.46c-8.25,9.38-16.54,18.72-24.75,28.15-4.14,4.76-4.61,12.74-1.2,17.68,4.7,6.82,11.32,8.8,17,5.13a15.69,15.69,0,0,0,3-2.9q28.35-32.17,56.65-64.38c1.54-1.76,2.35-2.12,4.09-.11q20.39,23.54,41,46.79c1.39,1.57,1.45,2.38,0,4q-28.26,31.84-56.4,63.81c-9.85,11.14-21.75,17.19-35.64,17.33C42.57,252,30.89,247.23,21.07,237c-6.58-6.82-12.54-14.13-16.38-23.42C1.52,205.93,0,197.89,0,193.32Z"/><path class="cls-3" d="M211.4,34.64c0,13.88-1.67,27.39-6.77,40.15-6.38,16-16.82,27.25-30.74,34.59-8,4.22-16.44,6.64-25.06,8.49-1.45.32-2.06-.16-2.6-1.58a81,81,0,0,1-5.08-37.91c2.35-21.95,12.92-38.39,27.52-52C179.71,16,192.29,8.85,205.53,3c2.42-1.07,2.95-.25,3.34,2.35A200.81,200.81,0,0,1,211.4,34.64Z"/><path class="cls-3" d="M140.44,116.33c-11.7-3-22.33-8.58-31.14-18.17-11.08-12.06-17-27.16-19.93-44-3.06-17.27-2.44-34.54.08-51.81.3-2.08.7-2.93,2.92-2,14.12,5.85,27.54,13.11,39.16,24.17a82.54,82.54,0,0,1,15,19.42,3.9,3.9,0,0,1,.11,4.32c-11.12,20.9-12.34,42.85-5.19,65.64C141.73,114.93,142.92,116.55,140.44,116.33Z"/><path class="cls-2" d="M478.06,94v3c0,13.66,0,27.33,0,41,0,2.09-.47,2.71-2.34,2.69-6-.06-6,0-6-6.63,0-15.78,0-31.56-.05-47.33,0-2.26.5-2.95,2.51-2.83a91.9,91.9,0,0,0,9.82,0c1.7-.07,2.43.54,2.92,2.46,2.52,9.72,5.18,19.4,7.8,29.09.23.86.5,1.7.95,3.25,1.22-4.31,2.28-8,3.31-11.69,1.92-6.89,3.91-13.76,5.7-20.69.5-1.94,1.28-2.49,3-2.42,3.44.15,6.9.09,10.35,0,1.25,0,1.69.45,1.69,1.89q0,26.53,0,53.06c0,1.28-.37,1.9-1.53,1.75h-.26c-6.61.4-6.61.4-6.61-7.1V94.22l-.45-.08q-2.19,7.83-4.38,15.65c-1.29,4.59-2.62,9.16-3.84,13.78-.39,1.46-.95,2.11-2.38,2-2.92-.13-5.85-.14-8.76,0-1.53.08-2.13-.55-2.58-2.17-2.44-8.91-5-17.79-7.54-26.66C479.12,95.89,479.18,94.77,478.06,94Z"/><path class="cls-2" d="M587.85,93.85c0,14.83-.06,29.29,0,43.75,0,2.56-.63,3.17-2.8,3.1-5.56-.16-5.56,0-5.56-6.24,0-15.77.07-31.54-.07-47.3,0-2.77.7-3.43,3-3.25a50.14,50.14,0,0,0,8.22,0c2.07-.17,3.09.6,3.92,2.82,5.24,14,10.63,28,16,42a4,4,0,0,0,1.22,1.82v-2.14c0-13.76.05-27.51,0-41.27,0-2.38.34-3.32,2.69-3.24,5.67.18,5.67,0,5.67,6.43v46.09c0,4.22,0,4.22-3.85,4.22-2.56,0-5.13-.11-7.69.05-1.57.09-2.34-.54-3-2.16q-8-21-16.18-41.9A5.1,5.1,0,0,0,587.85,93.85Z"/><path class="cls-2" d="M341,112.19c0-8.54.07-17.08,0-25.62,0-2.14.53-2.74,2.37-2.64,7,.37,14-.54,20.92.57,6.11,1,10.35,4.74,12.17,11.37a61.24,61.24,0,0,1-.11,33.19c-2.18,7.75-7.25,11.34-15.41,11.54-5.92.14-11.85,0-17.77.09-1.83,0-2.18-.71-2.16-2.59C341,129.47,341,120.83,341,112.19Zm8.37,0c0,5.72,0,11.45,0,17.17,0,1.56.21,2.4,1.85,2.32,2.91-.15,5.84.06,8.75-.09a8.36,8.36,0,0,0,8.23-6.71,48.61,48.61,0,0,0,.09-25.2,8,8,0,0,0-6-6.14c-3.41-.92-6.87-.19-10.29-.52-2-.2-2.77.43-2.69,2.91C349.44,101.3,349.32,106.73,349.32,112.15Z"/><path class="cls-2" d="M719.41,112.47a81.56,81.56,0,0,1-1.24,13.35c-2.21,10.5-7.23,15.32-16.69,16a30.78,30.78,0,0,1-9.23-.62,14.85,14.85,0,0,1-11.44-10.84,62.47,62.47,0,0,1-.15-35.46c2.39-8.39,8.35-11.42,15.55-12.06a28.59,28.59,0,0,1,9.49.69c6.8,1.7,10.5,6.89,12.21,14.25A77.09,77.09,0,0,1,719.41,112.47Zm-8.8-.1c-.06-4.41,0-8.83-1.14-13.13C708.62,96,707,93.43,704,92.49a18.26,18.26,0,0,0-9.17-.29c-3.57.72-5.75,3.19-6.52,7a66.6,66.6,0,0,0,0,26.24c.62,3.2,2.31,5.68,5.21,6.64a18,18,0,0,0,9.42.36c3.55-.72,5.58-3.14,6.56-6.92C710.58,121.2,710.56,116.78,710.61,112.37Z"/><path class="cls-2" d="M424.13,140.64c-2.65,0-5.27-.07-7.89,0-1.29.06-1.62-.91-2.07-1.88-2.44-5.34-5-10.64-7.27-16.06-.85-2-1.86-2.7-3.83-2.65-5.77.16-5.77,0-5.77,6.6,0,4,0,8,0,12,0,1.39-.34,1.87-1.63,2-6.76.46-6.75.51-6.75-7,0-15.56.05-31.13-.06-46.69,0-2.58.66-3.22,2.82-3.09,6.87.42,13.79-.64,20.64.62,5.05.92,8.25,4.32,9.53,9.91a28.11,28.11,0,0,1-.12,14.54c-1,3.38-2.76,6.17-5.67,7.57-2,1-1.78,1.94-.91,3.75,2.76,5.73,5.35,11.55,8,17.34A6.05,6.05,0,0,1,424.13,140.64ZM397.49,102.1h-.19c0,2.21.1,4.43,0,6.63-.1,1.81.36,2.51,2.05,2.41,2.74-.16,5.49,0,8.23,0,3.45-.06,5.44-1.91,6.19-5.68a17.7,17.7,0,0,0,0-6.88c-.63-3.33-2.53-5.24-5.51-5.49a17.67,17.67,0,0,0-2.91,0c-2.62.19-6.12-1.3-7.6.65C396.49,95.33,397.49,99.2,397.49,102.1Z"/><path class="cls-2" d="M632.83,112c0-8.43,0-16.86,0-25.29,0-2,.28-2.84,2.26-2.79,5.74.16,11.49,0,17.23.08,9.45.21,14.83,5.12,16.86,15.54a68,68,0,0,1-.14,26.28c-1.92,9.72-6.8,14.32-15.68,14.73-6.26.3-12.55,0-18.82.14-1.82,0-1.69-1.14-1.68-2.49Q632.85,125.1,632.83,112Zm8.22.31c0,5.72,0,11.44,0,17.16,0,1.44.2,2.23,1.72,2.17,3.08-.12,6.19.11,9.27-.1,4-.27,6.91-2.5,8.06-7a49.92,49.92,0,0,0,.18-24.35c-.89-3.67-3-6-6.42-6.78S647,93.3,643.55,93c-1.94-.19-2.62.42-2.55,2.77C641.16,101.26,641.05,106.78,641.05,112.3Z"/><path class="cls-2" d="M530.28,106c0-6.53.06-13.06,0-19.58,0-2,.47-2.53,2.23-2.53,6.06,0,6.06-.07,6.06,6.86q0,14.76,0,29.52c0,1.3,0,2.62.11,3.91.6,6.09,2.86,8.41,8.3,8.59,9.48.33,11.75-2.19,11.75-13,0-11,0-22.1,0-33.14,0-2,.4-2.75,2.31-2.73,6.11,0,6.11,0,6.11,6.83v29.82c0,15.63-5.12,21.32-19,21.31a27.87,27.87,0,0,1-6.31-.77c-6.84-1.58-10.85-6.57-11.22-14.61-.31-6.81-.06-13.65-.06-20.47Z"/><path class="cls-1" d="M521.86,182.22c1.33-4.61,2.73-8.95,3.8-13.39.55-2.28,1.46-2.94,3.49-2.87,4.7.18,4.7,0,4.7,5.36,0,6.83-.06,13.67,0,20.49,0,2-.51,2.49-2.22,2.52s-2.19-.7-2.17-2.6c.09-6.42,0-12.85,0-19.77-1.45,2-1.59,4.07-2.2,5.91-.49,1.5-.85,3.06-1.27,4.6-1,3.65-3.68,5.13-7,3.92-1-.37-1-1.35-1.19-2.13-1.15-3.84-2.24-7.7-3.36-11.55l-.67.13c0,6.36-.06,12.72,0,19.08,0,1.84-.43,2.38-2.07,2.4-1.81,0-2.43-.48-2.4-2.66.11-7.63.13-15.26,0-22.89,0-2.33.6-2.85,2.54-2.8,4.95.12,4.95,0,6.49,5.48q1.41,5,2.84,10C521.35,181.65,521.52,181.77,521.86,182.22Z"/><path class="cls-1" d="M501.34,193.93c-3.44,1.19-5.45-.05-6.46-3.68-.45-1.61-1.44-3-1.93-4.61-.61-2-1.81-2.35-3.48-2.29-1.3.05-1.66.6-1.62,2,.06,2.3-.1,4.62,0,6.92s-1.12,2-2.36,2-2.12-.1-2.1-2q.13-12,0-24.1c0-1.78.56-2.21,2-2.15,2.65.11,5.3,0,8,0,3.53,0,5.7,1.58,6.68,4.71,1.33,4.21.6,9-2.11,11-1.62,1.18-1.36,2-.63,3.53C498.72,188,500,190.91,501.34,193.93Zm-13.48-19.35c0,4.71,0,4.71,3.13,4.71,4.13,0,5.18-1,5.15-4.76,0-3.5-1.08-4.44-5.17-4.39C487.38,170.19,487.92,169.5,487.86,174.58Z"/><path class="cls-1" d="M476.72,194.08c-4.57.36-4.77.41-5.71-4-.64-3-1.85-3.88-4.53-3.73-5,.28-5.22,0-6.28,5.26-.81,4-3.17,2.31-5.44,2.71l6.45-22.48a14.42,14.42,0,0,0,.66-2.28c.35-2.94,1.78-3.77,4.32-3.61,1.77.11,2.6.57,3.16,2.57C471.69,177,474.21,185.43,476.72,194.08ZM466,171.25l-.56-.08c-.91,3.61-1.83,7.21-2.82,11.13,1.77,0,3.25,0,4.74,0,1.12,0,1.38-.53,1.09-1.65C467.58,177.52,466.77,174.38,466,171.25Z"/><path class="cls-1" d="M562.26,194c-4.28.6-4.49.66-5.42-3.87-.62-3-1.78-4.33-4.48-3.74a3.26,3.26,0,0,1-1.32,0c-2.84-.58-4.22.65-4.84,4-.79,4.22-1,4.16-5.53,3.65,1.65-5.73,3.27-11.41,4.9-17.08.74-2.58,1.67-5.1,2.18-7.73s1.72-3.34,4-3.3c2.05,0,2.9.78,3.49,2.93,2.05,7.46,4.29,14.86,6.43,22.29A6.13,6.13,0,0,1,562.26,194Zm-10.49-22.83-.48-.11c-.57,2.18-1.16,4.35-1.71,6.54-1.29,5.12-1.29,5.08,3.46,4.72,1.13-.08,1.6-.29,1.19-1.73C553.35,177.48,552.59,174.32,551.77,171.18Z"/><path class="cls-1" d="M604.9,194c2.6-9,5.1-17.93,7.81-26.8.76-2.47,2.94-.75,4.43-1.15s1.74.75,2.09,2c2.27,7.91,4.61,15.8,6.86,23.72.22.74,1.3,2.15-.17,2.33-1.28.17-3,1.16-4-.84a6.49,6.49,0,0,1-.36-1.13c-.59-1.85-.42-4.81-1.87-5.34-2.24-.83-4.87-.32-7.34-.34-.78,0-1,.67-1.16,1.39s-.38,1.54-.58,2.31C609.41,194.58,609.41,194.58,604.9,194Zm10.85-23.74c-.77,2.92-1.36,5.09-1.91,7.28-1.3,5.15-1.1,5.39,3.63,4.78.81-.11,1.41-.17,1.09-1.36C617.69,177.64,616.82,174.32,615.75,170.26Z"/><path class="cls-1" d="M434.62,180c0-3.91.05-7.82,0-11.73,0-1.55.19-2.38,1.84-2.33,3.88.13,7.77.11,11.65,0,1.46,0,1.75.62,1.76,2.11s-.38,2.15-1.8,2.06c-2-.12-4.06,0-6.09,0a4,4,0,0,0-1.58,0c-2.86,1.3-.84,4.08-1.28,6.12-.22,1-.83,3,1.36,3s4.25.09,6.36,0c1.43-.08,1.8.55,1.79,2.08s-.35,2.08-1.78,2.11c-2.53,0-5.79-1.3-7.39.55-1.45,1.68-.46,5.35-.37,8.13.07,2.15-.9,2.13-2.27,2.16s-2.3-.14-2.22-2.22C434.73,188.07,434.62,184.05,434.62,180Z"/><path class="cls-1" d="M581,169.53c-6.17,0-8.06,2.05-8.2,9,0,.8,0,1.6,0,2.41.14,7.58,2.12,9.78,8.81,9.79.18,0,.38-.07.53,0,1,.53,2.85-1.28,3.18,1.26.36,2.84-1.83,2.3-3.07,2.52a19.58,19.58,0,0,1-6.06.19c-3.34-.47-5.65-2.74-6.76-6.37a27.12,27.12,0,0,1-.19-15.66c1.7-5.89,6.06-8.32,12.41-7.15.78.15,1.55.37,2.33.55,1.19.26,1.16,1.26,1.15,2.31,0,1.25-.79,1.1-1.48,1.11C582.78,169.54,581.9,169.53,581,169.53Z"/><path class="cls-1" d="M593.73,179.9c0-3.91.11-7.82,0-11.72-.08-2.11.81-2.2,2.22-2.2s2.08.18,2.06,2.07q-.13,12,0,24c0,2.1-.82,2.13-2.23,2.2-1.66.1-2.11-.55-2.06-2.38C593.81,187.91,593.73,183.9,593.73,179.9Z"/><path class="cls-2" d="M431.21,135.16c0-4.78,1.07-6,5.33-6s5.31,1.27,5.3,6-1.23,6-5.38,6S431.21,140,431.21,135.16Z"/></g></g></svg>